<svg width="50mm" height="50mm" version="1.1" viewBox="0 0 50 50" xml:space="preserve" xmlns="http://www.w3.org/2000/svg"><defs><clipPath id="clipPath29316"><path d="m102.77 173.32c-1.3694-1.7039-2.7048-4.8822-0.33621-5.0544 1.7808 1.7637 3.4208 3.84 4.0485 3.8146 1.3389-0.0541 7.478 0.11173 8.008 0-0.33813-0.96084-1.4767-3.4213 1.815-4.0378 1.4509 2.0845 2.3329 2.8326 4.156 5.1735 3.8197-0.37141 13.135 5.7858 16.777 10.783 3.1038 4.2598 1.1242 5.0544-8.1885 5.0122-10.733-0.0486-16.112-1.6385-23.722-8.4717-2.8949-2.5994-4.0059-6.2578-2.5579-7.2196z" fill="none" stroke="#404040" stroke-linecap="round" stroke-linejoin="round" stroke-miterlimit="18.9" stroke-width="1.4822"/></clipPath></defs><g transform="translate(-92.555 -126.43)"><g transform="matrix(.89244 0 0 .89244 12.924 23.804)"><g transform="matrix(1.2229 0 -1.3423 1.4888 212.95 -122.76)" clip-path="url(#clipPath29316)"><rect transform="matrix(1 0 -.33615 .94181 0 0)" x="165.03" y="175.15" width="4.7131" height="25.022" fill="#31acfd"/><rect transform="matrix(1 0 -.33615 .94181 0 0)" x="169.75" y="175.15" width="4.7131" height="25.022" fill="#6fce5f"/><rect transform="matrix(1 0 -.33615 .94181 0 0)" x="174.46" y="175.15" width="4.7131" height="25.022" fill="#ffd264"/><rect transform="matrix(1 0 -.33615 .94181 0 0)" x="179.17" y="175.15" width="4.7131" height="25.022" fill="#fd9d2d"/><rect transform="matrix(1 0 -.33615 .94181 0 0)" x="183.88" y="175.15" width="4.7131" height="25.022" fill="#ff5871"/><rect transform="matrix(1 0 -.33615 .94181 0 0)" x="188.6" y="175.15" width="4.7131" height="25.022" fill="#e9328c"/><rect transform="matrix(1 0 -.33615 .94181 0 0)" x="193.31" y="175.15" width="4.7131" height="25.022" fill="#c131cc"/><rect transform="matrix(1 0 -.33615 .94181 0 0)" x="198.02" y="175.15" width="4.7131" height="25.022" fill="#fd3031"/></g><g fill="#3a434e"><path d="m129.43 126.44c-4.9396 0.93427-7.0447 4.4682-7.9844 6.0332-0.0479 3e-3 -0.0306 4e-3 -0.084 6e-3 -0.26076 9e-3 -0.60866 0.0129-1.0137 0.0137-0.81003 1e-3 -1.8462-0.0119-2.9121-0.0273-1.842-0.0266-3.4742-0.047-4.5801-0.0273 3e-3 -0.21534-4e-3 -0.39399 0.0332-0.73829 0.11314-1.0438 0.361-2.4898 0.46094-3.873a1.0001 1.0001 0 0 0-1.0801-1.0684c-2.0403 0.16724-3.6401 1.6591-4.8535 3.3106-1.1216 1.5264-1.8853 3.2163-2.2773 4.6113-1.6702 0.9298-3.2259 2.5581-4.457 4.5293-1.3371 2.1409-2.2952 4.5849-2.2656 6.832 0.06893 5.2312 1.3272 8.8166 4.4102 10.908 3.0829 2.0916 7.6306 2.6549 14.221 2.6914 5.7013 0.0316 9.503-0.21529 12.299-1.4102 2.7958-1.1949 4.4014-3.4465 5.4062-6.7617 1.1979-3.952 0.97466-8.2769-0.25391-11.656-0.61428-1.6897-1.4821-3.1538-2.6289-4.1992-0.81123-0.73954-1.8212-1.135-2.8887-1.3164 0.5884-2.522 0.72792-3.9673 1.584-6.5625a1.0001 1.0001 0 0 0-1.1348-1.2949zm-1.2148 2.5293c-0.48222 1.8693-0.74847 3.301-1.4297 5.9023a1.0001 1.0001 0 0 0 1.0742 1.2461c0.99127-0.10603 1.839 0.22429 2.6621 0.97461 0.82306 0.75033 1.5658 1.9394 2.0977 3.4024 1.0638 2.926 1.276 6.9063 0.21875 10.395-0.91748 3.0269-2.0159 4.5354-4.2774 5.502-2.2615 0.96651-5.8714 1.2812-11.502 1.25-6.4705-0.0359-10.672-0.69225-13.109-2.3457-2.4372-1.6534-3.4681-4.339-3.5332-9.2812-0.0214-1.623 0.77125-3.8381 1.9629-5.7461 1.1916-1.908 2.7989-3.5093 4.0234-4.082a1.0001 1.0001 0 0 0 0.54883-0.67187c0.26279-1.0885 1.038-2.8469 2.0762-4.2598 0.65388-0.88986 1.3956-1.5052 2.1328-1.9434-0.0967 0.74778-0.18858 1.5171-0.25976 2.1738-0.0623 0.57439-0.10548 1.0711-0.0508 1.5586 0.0273 0.24376 0.0648 0.49769 0.25976 0.80274 0.19495 0.30505 0.70444 0.60556 1.1211 0.58594 0.74029-0.0349 3.0382 2e-3 5.1758 0.0332 1.0688 0.0154 2.1115 0.0289 2.9453 0.0273 0.4169-7.6e-4 0.78104-6e-3 1.0781-0.0156 0.29709-0.01 0.47732-8e-3 0.75-0.0644a1.0001 1.0001 0 0 0 0.64844-0.45704c0.80398-1.3126 2.2265-3.7677 5.3867-4.9863z" color="#000000" style="-inkscape-stroke:none"/><circle cx="117.38" cy="141.8" r=".45781"/><circle cx="113.98" cy="140.46" r="1"/><circle cx="121.19" cy="140.05" r="1"/><path d="m113.97 143.13a0.5 0.5 0 0 0-0.57226 0.41601c-0.0615 0.38822 0.0541 0.7816 0.27929 1.0644 0.22517 0.28286 0.53166 0.47134 0.87305 0.61329 0.68278 0.28388 1.5375 0.39176 2.4141 0.40039 0.87656 9e-3 1.7664-0.088 2.5-0.27735 0.36682-0.0947 0.69421-0.21018 0.97266-0.36523s0.53652-0.35139 0.65625-0.68945a0.5 0.5 0 0 0-0.30469-0.63672 0.5 0.5 0 0 0-0.63672 0.30273c0.0108-0.0304-0.035 0.0559-0.20117 0.14844-0.16612 0.0925-0.42571 0.19129-0.73633 0.27148-0.62124 0.16039-1.447 0.25391-2.2402 0.2461-0.79322-8e-3 -1.5612-0.12472-2.041-0.32422-0.23991-0.0998-0.3994-0.21608-0.47461-0.31055-0.0752-0.0945-0.094-0.14979-0.0723-0.28711a0.5 0.5 0 0 0-0.41602-0.57226z" color="#000000" style="-inkscape-stroke:none"/><path d="m128.16 139.66a1.0001 1.0001 0 0 0-0.67383 0.24805l-1.5234 1.3418a1 1 0 0 0-0.0898 1.4121 1 1 0 0 0 1.4121 0.0898l1.2344-1.0879 8.0254 0.10351a1 1 0 0 0 1.0137-0.98632 1 1 0 0 0-0.98828-1.0137z" color="#000000" style="-inkscape-stroke:none"/><path d="m137.3 143.86-6.4531 0.0723a1 1 0 0 0-0.99023 1.0117 1 1 0 0 0 1.0117 0.98828l6.4531-0.0723a1 1 0 0 0 0.99024-1.0117 1 1 0 0 0-1.0117-0.98828z" color="#000000" style="-inkscape-stroke:none"/><path d="m128.15 147.37a1 1 0 0 0-0.62891 0.43554 1 1 0 0 0 0.30078 1.3828l2.0293 1.3047a1.0001 1.0001 0 0 0 0.41797 0.15039l5.2207 0.65235a1 1 0 0 0 1.1152-0.86719 1 1 0 0 0-0.86719-1.1172l-4.9961-0.62304-1.8398-1.1836a1 1 0 0 0-0.75195-0.13476z" color="#000000" style="-inkscape-stroke:none"/><path d="m95.199 139.98a1 1 0 0 0-1.0117 0.98633 1 1 0 0 0 0.98828 1.0137l8.8457 0.10743a1 1 0 0 0 1.0117-0.98633 1 1 0 0 0-0.98828-1.0137z" color="#000000" style="-inkscape-stroke:none"/><path d="m94.789 143.54a1.0001 1.0001 0 0 0-0.30859 0.0488l-1.2324 0.39843a1 1 0 0 0-0.64453 1.2598 1 1 0 0 0 1.2598 0.64258l1.084-0.34961h6.875a1 1 0 0 0 1-1 1 1 0 0 0-1-1z" color="#000000" style="-inkscape-stroke:none"/><path d="m102.29 146.26-5.0391 0.18164a1.0001 1.0001 0 0 0-0.30078 0.0586l-2.5371 0.90625a1 1 0 0 0-0.60547 1.2774 1 1 0 0 0 1.2773 0.60547l2.3926-0.85352 4.8848-0.17578a1 1 0 0 0 0.9629-1.0352 1 1 0 0 0-1.0352-0.96484z" color="#000000" style="-inkscape-stroke:none"/></g></g></g></svg>
